<mxfile host="app.diagrams.net" modified="2020-11-12T04:26:44.479Z" agent="5.0 (Macintosh; Intel Mac OS X 10_15_7) AppleWebKit/537.36 (KHTML, like Gecko) Chrome/86.0.4240.183 Safari/537.36" etag="cf3aiE73cpC9mbrj6scq" version="13.9.6" type="github">
  <diagram name="Page-1" id="12e1b939-464a-85fe-373e-61e167be1490">
    <mxGraphModel dx="1876" dy="1130" grid="1" gridSize="10" guides="1" tooltips="1" connect="1" arrows="1" fold="1" page="1" pageScale="1.5" pageWidth="1169" pageHeight="827" math="0" shadow="0">
      <root>
        <mxCell id="0" />
        <mxCell id="1" parent="0" />
        <mxCell id="GsL85oUIj4B969iY2pAi-1" value="&lt;br&gt;&lt;br&gt;老师" style="shape=actor;whiteSpace=wrap;html=1;fillColor=#dae8fc;strokeColor=#6c8ebf;" vertex="1" parent="1">
          <mxGeometry x="160" y="400" width="40" height="50" as="geometry" />
        </mxCell>
        <mxCell id="GsL85oUIj4B969iY2pAi-8" value="&lt;h1&gt;&lt;font color=&quot;#adadad&quot;&gt;蓄车池&lt;/font&gt;&lt;/h1&gt;" style="shape=loopLimit;whiteSpace=wrap;html=1;rounded=0;sketch=0;direction=west;" vertex="1" parent="1">
          <mxGeometry x="800" y="320" width="280" height="450" as="geometry" />
        </mxCell>
        <mxCell id="GsL85oUIj4B969iY2pAi-10" value="" style="ellipse;shape=cloud;whiteSpace=wrap;html=1;rounded=0;sketch=0;" vertex="1" parent="1">
          <mxGeometry x="290" y="10" width="310" height="200" as="geometry" />
        </mxCell>
        <mxCell id="GsL85oUIj4B969iY2pAi-13" value="" style="shape=image;verticalLabelPosition=bottom;verticalAlign=top;imageAspect=0;aspect=fixed;image=data:image/svg+xml,PHN2ZyB4bWxucz0iaHR0cDovL3d3dy53My5vcmcvMjAwMC9zdmciIHhtbG5zOnhsaW5rPSJodHRwOi8vd3d3LnczLm9yZy8xOTk5L3hsaW5rIiB0PSIxNjA1MTU0NjMxMDkxIiBjbGFzcz0iaWNvbiIgdmlld0JveD0iMCAwIDEwMjQgMTAyNCIgdmVyc2lvbj0iMS4xIiBwLWlkPSIxMjc0IiBkYXRhLXNwbS1hbmNob3ItaWQ9ImEzMTN4Ljc3ODEwNjkuMC5pMSIgd2lkdGg9IjIwMCIgaGVpZ2h0PSIyMDAiPjxkZWZzPjxzdHlsZSB0eXBlPSJ0ZXh0L2NzcyIvPjwvZGVmcz48cGF0aCBkPSJNODc2LjczMzQ0IDQ2MC43MDI3MmwtNDEuNDcyLTE5NS4wMzYxNmMtMTUuMTcwNTYtNzEuMzMxODQtODYuODE0NzItMTI5LjMxNTg0LTE1OS43NDQtMTI5LjMxNTg0aC0zMjYuODA5NmMtNzIuOTM0NCAwLTE0NC41Nzg1NiA1OC4wMTk4NC0xNTkuNzQ0IDEyOS4zMTU4NEwxNDcuNDU2IDQ2MC42OTc2QzEwMS4yNzM2IDQ4MS4yOCA2OS4wNTM0NCA1MjUuNDE0NCA2NS4zNDE0NCA1NzUuMzZsLTkuNDA1NDQgMTI1LjExNzQ0Yy00LjAzNDU2IDUzLjc2IDI2LjU1NzQ0IDEwMi4yMTA1NiA3NC41MjY3MiAxMjEuODI1MjggMTEuMDM4NzIgNDMuMjAyNTYgNDkuOTgxNDQgNzQuNzIxMjggOTYuMTI4IDc0LjcyMTI4IDQyLjg0OTI4IDAgNzkuMzYtMjYuNzU3MTIgOTMuMjQ1NDQtNjUuMzc3MjhoMzg0LjU0Nzg0QTk4LjYzMTY4IDk4LjYzMTY4IDAgMCAwIDc5Ny41OTM2IDg5Ny4wMjRjNDYuMTQxNDQgMCA4NS4xNDU2LTMxLjUxODcyIDk2LjE1MzYtNzQuNzIxMjggNDcuOTc0NC0xOS42MDk2IDc4LjUzNTY4LTY4LjA2NTI4IDc0LjQ5Ni0xMjEuODI1MjhsLTkuMzY5Ni0xMjUuMTE3NDRjLTMuNzQ3ODQtNDkuOTUwNzItMzUuOTczMTItOTQuMDgtODIuMTQ1MjgtMTE0LjY1NzI4eiBtLTE0LjE3NzI4IDMxMy4xMTg3MmEyNy45NTUyIDI3Ljk1NTIgMCAwIDAtMjEuNTcwNTYgMjUuODI1MjhjLTEuMTQ2ODggMjMuMjk2LTIwLjIxODg4IDQxLjU2NDE2LTQzLjM4Njg4IDQxLjU2NDE2LTIyLjYzMDQgMC00MS4xODUyOC0xNy4xNTItNDMuMjAyNTYtMzkuOTA1MjhhMjcuODkzNzYgMjcuODkzNzYgMCAwIDAtMjcuODA2NzItMjUuNDM2MTZIMjk3LjZhMjcuOTA5MTIgMjcuOTA5MTIgMCAwIDAtMjcuODA2NzIgMjUuNDM2MTZjLTIuMDE3MjggMjIuNzU4NC0yMC41ODI0IDM5LjkwNTI4LTQzLjIwMjU2IDM5LjkwNTI4LTIzLjE2OCAwLTQyLjI0LTE4LjIzNzQ0LTQzLjM5Mi00MS41NjQxNmEyNy45Mzk4NCAyNy45Mzk4NCAwIDAgMC0yMS41MzQ3Mi0yNS44MjUyOGMtMzItNy40MjQtNTIuNTc3MjgtMzUuODc1ODQtNTAuMDc4NzItNjkuMTU1ODRsOS40MDU0NC0xMjUuMDgxNmMyLjQzMi0zMi41MTIgMjYuOTQxNDQtNjIuMDEzNDQgNTkuNjQ4LTcxLjcxMDcyYTI3Ljk5MTA0IDI3Ljk5MTA0IDAgMCAwIDE5Ljc0MjcyLTIzLjQ1OTg0YzAuMTYzODQtMS41OTc0NCAwLjI5MTg0LTMuMiAwLjQxOTg0LTQuNzk3NDQgMC4wNjE0NC0wLjgyOTQ0IDAuMDYxNDQtMS42NjQgMC4yMjAxNi0yLjQwNjRsNDIuNTMxODQtMTk5Ljg5NTA0YzkuODIwMTYtNDYuMTQ2NTYgNTcuOTQ4MTYtODUuMTIgMTA1LjE0OTQ0LTg1LjEyaDMyNi44MDk2YzQ3LjE3NTY4IDAgOTUuMzM0NCAzOC45NzM0NCAxMDUuMTU0NTYgODUuMTJsNDIuNDk2IDE5OS44Njk0NGMwLjE2Mzg0IDAuODI5NDQgMC4xNjM4NCAxLjY2NCAwLjIyNTI4IDIuNDU3NiAwLjEwMjQgMS41NDExMiAwLjIyNTI4IDMuMTA3ODQgMC40MTk4NCA0LjY3NDU2YTI4LjAwMTI4IDI4LjAwMTI4IDAgMCAwIDE5Ljc3MzQ0IDIzLjUyMTI4YzMyLjY3MDcyIDkuNzI4IDU3LjE5MDQgMzkuMjI5NDQgNTkuNjE3MjggNzEuNzEwNzJsOS4zNjk2IDEyNS4wOTE4NGMyLjUzNDQgMzMuMjgtMTguMDM3NzYgNjEuNzU3NDQtNTAuMDEyMTYgNjkuMTgxNDR6IG0tMTY0Ljg5NDcyLTEyOC4wOTIxNmMwIDM0LjgyNjI0IDI4LjIzNjggNjMuMDY4MTYgNjMuMDczMjggNjMuMDY4MTYgMzQuODMxMzYgMCA2My4wNzMyOC0yOC4yNDE5MiA2My4wNzMyOC02My4wNjgxNiAwLTM0LjgzNjQ4LTI4LjI0MTkyLTYzLjA3ODQtNjMuMDc4NC02My4wNzg0LTM0LjgzMTM2IDAtNjMuMDY4MTYgMjguMjQxOTItNjMuMDY4MTYgNjMuMDc4NHpNMjk3LjA4OCA0ODcuMDY1Nmg0MjkuOTc3NmMxMC4zNzMxMiAwIDE5LjI2NjU2LTMuODQgMjQuNzM5ODQtMTAuNDI5NDQgNS45MjM4NC02LjgxNDcyIDguMjg5MjgtMTYuMTYzODQgNi43NTMyOC0yNi4yNzU4NC0wLjEzMzEyLTAuNjcwNzItMC4yNTYtMS4zNDE0NC0wLjQxNDcyLTIuMDEyMTZsLTMzLjc5Mi0xNDYuNzkwNGMtNC4yMjQtMjMuMTMyMTYtMjcuMTM2LTQyLjQ5MDg4LTUwLjcyMzg0LTQyLjQ5MDg4SDM1MC41MjU0NGMtMjMuNTgyNzIgMC00Ni40ODk2IDE5LjMyOC01MC43NDk0NCA0Mi40OTZsLTMzLjc2MTI4IDE0Ni43NDk0NGE0NC40ODc2OCA0NC40ODc2OCAwIDAgMC0wLjQxNDcyIDIuMDE3MjhjLTEuNTY2NzIgMTAuMTEyIDAuODI5NDQgMTkuNDU2IDYuNCAyNS44OTE4NCA1Ljg1MjE2IDcuMDA0MTYgMTQuNzUwNzIgMTAuODQ0MTYgMjUuMDg4IDEwLjg0NDE2ek0zNTQuMDEyMTYgMzE0Ljg4aDMxNi4yMjY1NmwyNi43NDY4OCAxMTYuMzUySDMyNy4yMjk0NEwzNTQuMDEyMTYgMzE0Ljg4eiBtLTE1My42IDMzMC44NDkyOGMwIDM0LjgyNjI0IDI4LjI0MTkyIDYzLjA2ODE2IDYzLjA3ODQgNjMuMDY4MTYgMzQuODMxMzYgMCA2My4wNjgxNi0yOC4yNDE5MiA2My4wNjgxNi02My4wNjgxNiAwLTM0LjgzNjQ4LTI4LjIzNjgtNjMuMDc4NC02My4wNzMyOC02My4wNzg0LTM0LjgzMTM2IDAtNjMuMDczMjggMjguMjQxOTItNjMuMDczMjggNjMuMDc4NHoiIHAtaWQ9IjEyNzUiIGRhdGEtc3BtLWFuY2hvci1pZD0iYTMxM3guNzc4MTA2OS4wLmkyIi8+PC9zdmc+" vertex="1" parent="1">
          <mxGeometry x="952" y="950" width="40" height="40" as="geometry" />
        </mxCell>
        <mxCell id="GsL85oUIj4B969iY2pAi-14" value="" style="shape=image;verticalLabelPosition=bottom;verticalAlign=top;imageAspect=0;aspect=fixed;image=data:image/svg+xml,PHN2ZyB4bWxucz0iaHR0cDovL3d3dy53My5vcmcvMjAwMC9zdmciIHhtbG5zOnhsaW5rPSJodHRwOi8vd3d3LnczLm9yZy8xOTk5L3hsaW5rIiB0PSIxNjA1MTU0NjMxMDkxIiBjbGFzcz0iaWNvbiIgdmlld0JveD0iMCAwIDEwMjQgMTAyNCIgdmVyc2lvbj0iMS4xIiBwLWlkPSIxMjc0IiBkYXRhLXNwbS1hbmNob3ItaWQ9ImEzMTN4Ljc3ODEwNjkuMC5pMSIgd2lkdGg9IjIwMCIgaGVpZ2h0PSIyMDAiPjxkZWZzPjxzdHlsZSB0eXBlPSJ0ZXh0L2NzcyIvPjwvZGVmcz48cGF0aCBkPSJNODc2LjczMzQ0IDQ2MC43MDI3MmwtNDEuNDcyLTE5NS4wMzYxNmMtMTUuMTcwNTYtNzEuMzMxODQtODYuODE0NzItMTI5LjMxNTg0LTE1OS43NDQtMTI5LjMxNTg0aC0zMjYuODA5NmMtNzIuOTM0NCAwLTE0NC41Nzg1NiA1OC4wMTk4NC0xNTkuNzQ0IDEyOS4zMTU4NEwxNDcuNDU2IDQ2MC42OTc2QzEwMS4yNzM2IDQ4MS4yOCA2OS4wNTM0NCA1MjUuNDE0NCA2NS4zNDE0NCA1NzUuMzZsLTkuNDA1NDQgMTI1LjExNzQ0Yy00LjAzNDU2IDUzLjc2IDI2LjU1NzQ0IDEwMi4yMTA1NiA3NC41MjY3MiAxMjEuODI1MjggMTEuMDM4NzIgNDMuMjAyNTYgNDkuOTgxNDQgNzQuNzIxMjggOTYuMTI4IDc0LjcyMTI4IDQyLjg0OTI4IDAgNzkuMzYtMjYuNzU3MTIgOTMuMjQ1NDQtNjUuMzc3MjhoMzg0LjU0Nzg0QTk4LjYzMTY4IDk4LjYzMTY4IDAgMCAwIDc5Ny41OTM2IDg5Ny4wMjRjNDYuMTQxNDQgMCA4NS4xNDU2LTMxLjUxODcyIDk2LjE1MzYtNzQuNzIxMjggNDcuOTc0NC0xOS42MDk2IDc4LjUzNTY4LTY4LjA2NTI4IDc0LjQ5Ni0xMjEuODI1MjhsLTkuMzY5Ni0xMjUuMTE3NDRjLTMuNzQ3ODQtNDkuOTUwNzItMzUuOTczMTItOTQuMDgtODIuMTQ1MjgtMTE0LjY1NzI4eiBtLTE0LjE3NzI4IDMxMy4xMTg3MmEyNy45NTUyIDI3Ljk1NTIgMCAwIDAtMjEuNTcwNTYgMjUuODI1MjhjLTEuMTQ2ODggMjMuMjk2LTIwLjIxODg4IDQxLjU2NDE2LTQzLjM4Njg4IDQxLjU2NDE2LTIyLjYzMDQgMC00MS4xODUyOC0xNy4xNTItNDMuMjAyNTYtMzkuOTA1MjhhMjcuODkzNzYgMjcuODkzNzYgMCAwIDAtMjcuODA2NzItMjUuNDM2MTZIMjk3LjZhMjcuOTA5MTIgMjcuOTA5MTIgMCAwIDAtMjcuODA2NzIgMjUuNDM2MTZjLTIuMDE3MjggMjIuNzU4NC0yMC41ODI0IDM5LjkwNTI4LTQzLjIwMjU2IDM5LjkwNTI4LTIzLjE2OCAwLTQyLjI0LTE4LjIzNzQ0LTQzLjM5Mi00MS41NjQxNmEyNy45Mzk4NCAyNy45Mzk4NCAwIDAgMC0yMS41MzQ3Mi0yNS44MjUyOGMtMzItNy40MjQtNTIuNTc3MjgtMzUuODc1ODQtNTAuMDc4NzItNjkuMTU1ODRsOS40MDU0NC0xMjUuMDgxNmMyLjQzMi0zMi41MTIgMjYuOTQxNDQtNjIuMDEzNDQgNTkuNjQ4LTcxLjcxMDcyYTI3Ljk5MTA0IDI3Ljk5MTA0IDAgMCAwIDE5Ljc0MjcyLTIzLjQ1OTg0YzAuMTYzODQtMS41OTc0NCAwLjI5MTg0LTMuMiAwLjQxOTg0LTQuNzk3NDQgMC4wNjE0NC0wLjgyOTQ0IDAuMDYxNDQtMS42NjQgMC4yMjAxNi0yLjQwNjRsNDIuNTMxODQtMTk5Ljg5NTA0YzkuODIwMTYtNDYuMTQ2NTYgNTcuOTQ4MTYtODUuMTIgMTA1LjE0OTQ0LTg1LjEyaDMyNi44MDk2YzQ3LjE3NTY4IDAgOTUuMzM0NCAzOC45NzM0NCAxMDUuMTU0NTYgODUuMTJsNDIuNDk2IDE5OS44Njk0NGMwLjE2Mzg0IDAuODI5NDQgMC4xNjM4NCAxLjY2NCAwLjIyNTI4IDIuNDU3NiAwLjEwMjQgMS41NDExMiAwLjIyNTI4IDMuMTA3ODQgMC40MTk4NCA0LjY3NDU2YTI4LjAwMTI4IDI4LjAwMTI4IDAgMCAwIDE5Ljc3MzQ0IDIzLjUyMTI4YzMyLjY3MDcyIDkuNzI4IDU3LjE5MDQgMzkuMjI5NDQgNTkuNjE3MjggNzEuNzEwNzJsOS4zNjk2IDEyNS4wOTE4NGMyLjUzNDQgMzMuMjgtMTguMDM3NzYgNjEuNzU3NDQtNTAuMDEyMTYgNjkuMTgxNDR6IG0tMTY0Ljg5NDcyLTEyOC4wOTIxNmMwIDM0LjgyNjI0IDI4LjIzNjggNjMuMDY4MTYgNjMuMDczMjggNjMuMDY4MTYgMzQuODMxMzYgMCA2My4wNzMyOC0yOC4yNDE5MiA2My4wNzMyOC02My4wNjgxNiAwLTM0LjgzNjQ4LTI4LjI0MTkyLTYzLjA3ODQtNjMuMDc4NC02My4wNzg0LTM0LjgzMTM2IDAtNjMuMDY4MTYgMjguMjQxOTItNjMuMDY4MTYgNjMuMDc4NHpNMjk3LjA4OCA0ODcuMDY1Nmg0MjkuOTc3NmMxMC4zNzMxMiAwIDE5LjI2NjU2LTMuODQgMjQuNzM5ODQtMTAuNDI5NDQgNS45MjM4NC02LjgxNDcyIDguMjg5MjgtMTYuMTYzODQgNi43NTMyOC0yNi4yNzU4NC0wLjEzMzEyLTAuNjcwNzItMC4yNTYtMS4zNDE0NC0wLjQxNDcyLTIuMDEyMTZsLTMzLjc5Mi0xNDYuNzkwNGMtNC4yMjQtMjMuMTMyMTYtMjcuMTM2LTQyLjQ5MDg4LTUwLjcyMzg0LTQyLjQ5MDg4SDM1MC41MjU0NGMtMjMuNTgyNzIgMC00Ni40ODk2IDE5LjMyOC01MC43NDk0NCA0Mi40OTZsLTMzLjc2MTI4IDE0Ni43NDk0NGE0NC40ODc2OCA0NC40ODc2OCAwIDAgMC0wLjQxNDcyIDIuMDE3MjhjLTEuNTY2NzIgMTAuMTEyIDAuODI5NDQgMTkuNDU2IDYuNCAyNS44OTE4NCA1Ljg1MjE2IDcuMDA0MTYgMTQuNzUwNzIgMTAuODQ0MTYgMjUuMDg4IDEwLjg0NDE2ek0zNTQuMDEyMTYgMzE0Ljg4aDMxNi4yMjY1NmwyNi43NDY4OCAxMTYuMzUySDMyNy4yMjk0NEwzNTQuMDEyMTYgMzE0Ljg4eiBtLTE1My42IDMzMC44NDkyOGMwIDM0LjgyNjI0IDI4LjI0MTkyIDYzLjA2ODE2IDYzLjA3ODQgNjMuMDY4MTYgMzQuODMxMzYgMCA2My4wNjgxNi0yOC4yNDE5MiA2My4wNjgxNi02My4wNjgxNiAwLTM0LjgzNjQ4LTI4LjIzNjgtNjMuMDc4NC02My4wNzMyOC02My4wNzg0LTM0LjgzMTM2IDAtNjMuMDczMjggMjguMjQxOTItNjMuMDczMjggNjMuMDc4NHoiIHAtaWQ9IjEyNzUiIGRhdGEtc3BtLWFuY2hvci1pZD0iYTMxM3guNzc4MTA2OS4wLmkyIi8+PC9zdmc+" vertex="1" parent="1">
          <mxGeometry x="888" y="950" width="40" height="40" as="geometry" />
        </mxCell>
        <mxCell id="GsL85oUIj4B969iY2pAi-15" value="" style="shape=image;verticalLabelPosition=bottom;verticalAlign=top;imageAspect=0;aspect=fixed;image=data:image/svg+xml,PHN2ZyB4bWxucz0iaHR0cDovL3d3dy53My5vcmcvMjAwMC9zdmciIHhtbG5zOnhsaW5rPSJodHRwOi8vd3d3LnczLm9yZy8xOTk5L3hsaW5rIiB0PSIxNjA1MTU0NjMxMDkxIiBjbGFzcz0iaWNvbiIgdmlld0JveD0iMCAwIDEwMjQgMTAyNCIgdmVyc2lvbj0iMS4xIiBwLWlkPSIxMjc0IiBkYXRhLXNwbS1hbmNob3ItaWQ9ImEzMTN4Ljc3ODEwNjkuMC5pMSIgd2lkdGg9IjIwMCIgaGVpZ2h0PSIyMDAiPjxkZWZzPjxzdHlsZSB0eXBlPSJ0ZXh0L2NzcyIvPjwvZGVmcz48cGF0aCBkPSJNODc2LjczMzQ0IDQ2MC43MDI3MmwtNDEuNDcyLTE5NS4wMzYxNmMtMTUuMTcwNTYtNzEuMzMxODQtODYuODE0NzItMTI5LjMxNTg0LTE1OS43NDQtMTI5LjMxNTg0aC0zMjYuODA5NmMtNzIuOTM0NCAwLTE0NC41Nzg1NiA1OC4wMTk4NC0xNTkuNzQ0IDEyOS4zMTU4NEwxNDcuNDU2IDQ2MC42OTc2QzEwMS4yNzM2IDQ4MS4yOCA2OS4wNTM0NCA1MjUuNDE0NCA2NS4zNDE0NCA1NzUuMzZsLTkuNDA1NDQgMTI1LjExNzQ0Yy00LjAzNDU2IDUzLjc2IDI2LjU1NzQ0IDEwMi4yMTA1NiA3NC41MjY3MiAxMjEuODI1MjggMTEuMDM4NzIgNDMuMjAyNTYgNDkuOTgxNDQgNzQuNzIxMjggOTYuMTI4IDc0LjcyMTI4IDQyLjg0OTI4IDAgNzkuMzYtMjYuNzU3MTIgOTMuMjQ1NDQtNjUuMzc3MjhoMzg0LjU0Nzg0QTk4LjYzMTY4IDk4LjYzMTY4IDAgMCAwIDc5Ny41OTM2IDg5Ny4wMjRjNDYuMTQxNDQgMCA4NS4xNDU2LTMxLjUxODcyIDk2LjE1MzYtNzQuNzIxMjggNDcuOTc0NC0xOS42MDk2IDc4LjUzNTY4LTY4LjA2NTI4IDc0LjQ5Ni0xMjEuODI1MjhsLTkuMzY5Ni0xMjUuMTE3NDRjLTMuNzQ3ODQtNDkuOTUwNzItMzUuOTczMTItOTQuMDgtODIuMTQ1MjgtMTE0LjY1NzI4eiBtLTE0LjE3NzI4IDMxMy4xMTg3MmEyNy45NTUyIDI3Ljk1NTIgMCAwIDAtMjEuNTcwNTYgMjUuODI1MjhjLTEuMTQ2ODggMjMuMjk2LTIwLjIxODg4IDQxLjU2NDE2LTQzLjM4Njg4IDQxLjU2NDE2LTIyLjYzMDQgMC00MS4xODUyOC0xNy4xNTItNDMuMjAyNTYtMzkuOTA1MjhhMjcuODkzNzYgMjcuODkzNzYgMCAwIDAtMjcuODA2NzItMjUuNDM2MTZIMjk3LjZhMjcuOTA5MTIgMjcuOTA5MTIgMCAwIDAtMjcuODA2NzIgMjUuNDM2MTZjLTIuMDE3MjggMjIuNzU4NC0yMC41ODI0IDM5LjkwNTI4LTQzLjIwMjU2IDM5LjkwNTI4LTIzLjE2OCAwLTQyLjI0LTE4LjIzNzQ0LTQzLjM5Mi00MS41NjQxNmEyNy45Mzk4NCAyNy45Mzk4NCAwIDAgMC0yMS41MzQ3Mi0yNS44MjUyOGMtMzItNy40MjQtNTIuNTc3MjgtMzUuODc1ODQtNTAuMDc4NzItNjkuMTU1ODRsOS40MDU0NC0xMjUuMDgxNmMyLjQzMi0zMi41MTIgMjYuOTQxNDQtNjIuMDEzNDQgNTkuNjQ4LTcxLjcxMDcyYTI3Ljk5MTA0IDI3Ljk5MTA0IDAgMCAwIDE5Ljc0MjcyLTIzLjQ1OTg0YzAuMTYzODQtMS41OTc0NCAwLjI5MTg0LTMuMiAwLjQxOTg0LTQuNzk3NDQgMC4wNjE0NC0wLjgyOTQ0IDAuMDYxNDQtMS42NjQgMC4yMjAxNi0yLjQwNjRsNDIuNTMxODQtMTk5Ljg5NTA0YzkuODIwMTYtNDYuMTQ2NTYgNTcuOTQ4MTYtODUuMTIgMTA1LjE0OTQ0LTg1LjEyaDMyNi44MDk2YzQ3LjE3NTY4IDAgOTUuMzM0NCAzOC45NzM0NCAxMDUuMTU0NTYgODUuMTJsNDIuNDk2IDE5OS44Njk0NGMwLjE2Mzg0IDAuODI5NDQgMC4xNjM4NCAxLjY2NCAwLjIyNTI4IDIuNDU3NiAwLjEwMjQgMS41NDExMiAwLjIyNTI4IDMuMTA3ODQgMC40MTk4NCA0LjY3NDU2YTI4LjAwMTI4IDI4LjAwMTI4IDAgMCAwIDE5Ljc3MzQ0IDIzLjUyMTI4YzMyLjY3MDcyIDkuNzI4IDU3LjE5MDQgMzkuMjI5NDQgNTkuNjE3MjggNzEuNzEwNzJsOS4zNjk2IDEyNS4wOTE4NGMyLjUzNDQgMzMuMjgtMTguMDM3NzYgNjEuNzU3NDQtNTAuMDEyMTYgNjkuMTgxNDR6IG0tMTY0Ljg5NDcyLTEyOC4wOTIxNmMwIDM0LjgyNjI0IDI4LjIzNjggNjMuMDY4MTYgNjMuMDczMjggNjMuMDY4MTYgMzQuODMxMzYgMCA2My4wNzMyOC0yOC4yNDE5MiA2My4wNzMyOC02My4wNjgxNiAwLTM0LjgzNjQ4LTI4LjI0MTkyLTYzLjA3ODQtNjMuMDc4NC02My4wNzg0LTM0LjgzMTM2IDAtNjMuMDY4MTYgMjguMjQxOTItNjMuMDY4MTYgNjMuMDc4NHpNMjk3LjA4OCA0ODcuMDY1Nmg0MjkuOTc3NmMxMC4zNzMxMiAwIDE5LjI2NjU2LTMuODQgMjQuNzM5ODQtMTAuNDI5NDQgNS45MjM4NC02LjgxNDcyIDguMjg5MjgtMTYuMTYzODQgNi43NTMyOC0yNi4yNzU4NC0wLjEzMzEyLTAuNjcwNzItMC4yNTYtMS4zNDE0NC0wLjQxNDcyLTIuMDEyMTZsLTMzLjc5Mi0xNDYuNzkwNGMtNC4yMjQtMjMuMTMyMTYtMjcuMTM2LTQyLjQ5MDg4LTUwLjcyMzg0LTQyLjQ5MDg4SDM1MC41MjU0NGMtMjMuNTgyNzIgMC00Ni40ODk2IDE5LjMyOC01MC43NDk0NCA0Mi40OTZsLTMzLjc2MTI4IDE0Ni43NDk0NGE0NC40ODc2OCA0NC40ODc2OCAwIDAgMC0wLjQxNDcyIDIuMDE3MjhjLTEuNTY2NzIgMTAuMTEyIDAuODI5NDQgMTkuNDU2IDYuNCAyNS44OTE4NCA1Ljg1MjE2IDcuMDA0MTYgMTQuNzUwNzIgMTAuODQ0MTYgMjUuMDg4IDEwLjg0NDE2ek0zNTQuMDEyMTYgMzE0Ljg4aDMxNi4yMjY1NmwyNi43NDY4OCAxMTYuMzUySDMyNy4yMjk0NEwzNTQuMDEyMTYgMzE0Ljg4eiBtLTE1My42IDMzMC44NDkyOGMwIDM0LjgyNjI0IDI4LjI0MTkyIDYzLjA2ODE2IDYzLjA3ODQgNjMuMDY4MTYgMzQuODMxMzYgMCA2My4wNjgxNi0yOC4yNDE5MiA2My4wNjgxNi02My4wNjgxNiAwLTM0LjgzNjQ4LTI4LjIzNjgtNjMuMDc4NC02My4wNzMyOC02My4wNzg0LTM0LjgzMTM2IDAtNjMuMDczMjggMjguMjQxOTItNjMuMDczMjggNjMuMDc4NHoiIHAtaWQ9IjEyNzUiIGRhdGEtc3BtLWFuY2hvci1pZD0iYTMxM3guNzc4MTA2OS4wLmkyIi8+PC9zdmc+" vertex="1" parent="1">
          <mxGeometry x="825" y="950" width="40" height="40" as="geometry" />
        </mxCell>
        <mxCell id="GsL85oUIj4B969iY2pAi-16" value="" style="shape=image;verticalLabelPosition=bottom;verticalAlign=top;imageAspect=0;aspect=fixed;image=data:image/svg+xml,PHN2ZyB4bWxucz0iaHR0cDovL3d3dy53My5vcmcvMjAwMC9zdmciIHhtbG5zOnhsaW5rPSJodHRwOi8vd3d3LnczLm9yZy8xOTk5L3hsaW5rIiB0PSIxNjA1MTU0NjMxMDkxIiBjbGFzcz0iaWNvbiIgdmlld0JveD0iMCAwIDEwMjQgMTAyNCIgdmVyc2lvbj0iMS4xIiBwLWlkPSIxMjc0IiBkYXRhLXNwbS1hbmNob3ItaWQ9ImEzMTN4Ljc3ODEwNjkuMC5pMSIgd2lkdGg9IjIwMCIgaGVpZ2h0PSIyMDAiPjxkZWZzPjxzdHlsZSB0eXBlPSJ0ZXh0L2NzcyIvPjwvZGVmcz48cGF0aCBkPSJNODc2LjczMzQ0IDQ2MC43MDI3MmwtNDEuNDcyLTE5NS4wMzYxNmMtMTUuMTcwNTYtNzEuMzMxODQtODYuODE0NzItMTI5LjMxNTg0LTE1OS43NDQtMTI5LjMxNTg0aC0zMjYuODA5NmMtNzIuOTM0NCAwLTE0NC41Nzg1NiA1OC4wMTk4NC0xNTkuNzQ0IDEyOS4zMTU4NEwxNDcuNDU2IDQ2MC42OTc2QzEwMS4yNzM2IDQ4MS4yOCA2OS4wNTM0NCA1MjUuNDE0NCA2NS4zNDE0NCA1NzUuMzZsLTkuNDA1NDQgMTI1LjExNzQ0Yy00LjAzNDU2IDUzLjc2IDI2LjU1NzQ0IDEwMi4yMTA1NiA3NC41MjY3MiAxMjEuODI1MjggMTEuMDM4NzIgNDMuMjAyNTYgNDkuOTgxNDQgNzQuNzIxMjggOTYuMTI4IDc0LjcyMTI4IDQyLjg0OTI4IDAgNzkuMzYtMjYuNzU3MTIgOTMuMjQ1NDQtNjUuMzc3MjhoMzg0LjU0Nzg0QTk4LjYzMTY4IDk4LjYzMTY4IDAgMCAwIDc5Ny41OTM2IDg5Ny4wMjRjNDYuMTQxNDQgMCA4NS4xNDU2LTMxLjUxODcyIDk2LjE1MzYtNzQuNzIxMjggNDcuOTc0NC0xOS42MDk2IDc4LjUzNTY4LTY4LjA2NTI4IDc0LjQ5Ni0xMjEuODI1MjhsLTkuMzY5Ni0xMjUuMTE3NDRjLTMuNzQ3ODQtNDkuOTUwNzItMzUuOTczMTItOTQuMDgtODIuMTQ1MjgtMTE0LjY1NzI4eiBtLTE0LjE3NzI4IDMxMy4xMTg3MmEyNy45NTUyIDI3Ljk1NTIgMCAwIDAtMjEuNTcwNTYgMjUuODI1MjhjLTEuMTQ2ODggMjMuMjk2LTIwLjIxODg4IDQxLjU2NDE2LTQzLjM4Njg4IDQxLjU2NDE2LTIyLjYzMDQgMC00MS4xODUyOC0xNy4xNTItNDMuMjAyNTYtMzkuOTA1MjhhMjcuODkzNzYgMjcuODkzNzYgMCAwIDAtMjcuODA2NzItMjUuNDM2MTZIMjk3LjZhMjcuOTA5MTIgMjcuOTA5MTIgMCAwIDAtMjcuODA2NzIgMjUuNDM2MTZjLTIuMDE3MjggMjIuNzU4NC0yMC41ODI0IDM5LjkwNTI4LTQzLjIwMjU2IDM5LjkwNTI4LTIzLjE2OCAwLTQyLjI0LTE4LjIzNzQ0LTQzLjM5Mi00MS41NjQxNmEyNy45Mzk4NCAyNy45Mzk4NCAwIDAgMC0yMS41MzQ3Mi0yNS44MjUyOGMtMzItNy40MjQtNTIuNTc3MjgtMzUuODc1ODQtNTAuMDc4NzItNjkuMTU1ODRsOS40MDU0NC0xMjUuMDgxNmMyLjQzMi0zMi41MTIgMjYuOTQxNDQtNjIuMDEzNDQgNTkuNjQ4LTcxLjcxMDcyYTI3Ljk5MTA0IDI3Ljk5MTA0IDAgMCAwIDE5Ljc0MjcyLTIzLjQ1OTg0YzAuMTYzODQtMS41OTc0NCAwLjI5MTg0LTMuMiAwLjQxOTg0LTQuNzk3NDQgMC4wNjE0NC0wLjgyOTQ0IDAuMDYxNDQtMS42NjQgMC4yMjAxNi0yLjQwNjRsNDIuNTMxODQtMTk5Ljg5NTA0YzkuODIwMTYtNDYuMTQ2NTYgNTcuOTQ4MTYtODUuMTIgMTA1LjE0OTQ0LTg1LjEyaDMyNi44MDk2YzQ3LjE3NTY4IDAgOTUuMzM0NCAzOC45NzM0NCAxMDUuMTU0NTYgODUuMTJsNDIuNDk2IDE5OS44Njk0NGMwLjE2Mzg0IDAuODI5NDQgMC4xNjM4NCAxLjY2NCAwLjIyNTI4IDIuNDU3NiAwLjEwMjQgMS41NDExMiAwLjIyNTI4IDMuMTA3ODQgMC40MTk4NCA0LjY3NDU2YTI4LjAwMTI4IDI4LjAwMTI4IDAgMCAwIDE5Ljc3MzQ0IDIzLjUyMTI4YzMyLjY3MDcyIDkuNzI4IDU3LjE5MDQgMzkuMjI5NDQgNTkuNjE3MjggNzEuNzEwNzJsOS4zNjk2IDEyNS4wOTE4NGMyLjUzNDQgMzMuMjgtMTguMDM3NzYgNjEuNzU3NDQtNTAuMDEyMTYgNjkuMTgxNDR6IG0tMTY0Ljg5NDcyLTEyOC4wOTIxNmMwIDM0LjgyNjI0IDI4LjIzNjggNjMuMDY4MTYgNjMuMDczMjggNjMuMDY4MTYgMzQuODMxMzYgMCA2My4wNzMyOC0yOC4yNDE5MiA2My4wNzMyOC02My4wNjgxNiAwLTM0LjgzNjQ4LTI4LjI0MTkyLTYzLjA3ODQtNjMuMDc4NC02My4wNzg0LTM0LjgzMTM2IDAtNjMuMDY4MTYgMjguMjQxOTItNjMuMDY4MTYgNjMuMDc4NHpNMjk3LjA4OCA0ODcuMDY1Nmg0MjkuOTc3NmMxMC4zNzMxMiAwIDE5LjI2NjU2LTMuODQgMjQuNzM5ODQtMTAuNDI5NDQgNS45MjM4NC02LjgxNDcyIDguMjg5MjgtMTYuMTYzODQgNi43NTMyOC0yNi4yNzU4NC0wLjEzMzEyLTAuNjcwNzItMC4yNTYtMS4zNDE0NC0wLjQxNDcyLTIuMDEyMTZsLTMzLjc5Mi0xNDYuNzkwNGMtNC4yMjQtMjMuMTMyMTYtMjcuMTM2LTQyLjQ5MDg4LTUwLjcyMzg0LTQyLjQ5MDg4SDM1MC41MjU0NGMtMjMuNTgyNzIgMC00Ni40ODk2IDE5LjMyOC01MC43NDk0NCA0Mi40OTZsLTMzLjc2MTI4IDE0Ni43NDk0NGE0NC40ODc2OCA0NC40ODc2OCAwIDAgMC0wLjQxNDcyIDIuMDE3MjhjLTEuNTY2NzIgMTAuMTEyIDAuODI5NDQgMTkuNDU2IDYuNCAyNS44OTE4NCA1Ljg1MjE2IDcuMDA0MTYgMTQuNzUwNzIgMTAuODQ0MTYgMjUuMDg4IDEwLjg0NDE2ek0zNTQuMDEyMTYgMzE0Ljg4aDMxNi4yMjY1NmwyNi43NDY4OCAxMTYuMzUySDMyNy4yMjk0NEwzNTQuMDEyMTYgMzE0Ljg4eiBtLTE1My42IDMzMC44NDkyOGMwIDM0LjgyNjI0IDI4LjI0MTkyIDYzLjA2ODE2IDYzLjA3ODQgNjMuMDY4MTYgMzQuODMxMzYgMCA2My4wNjgxNi0yOC4yNDE5MiA2My4wNjgxNi02My4wNjgxNiAwLTM0LjgzNjQ4LTI4LjIzNjgtNjMuMDc4NC02My4wNzMyOC02My4wNzg0LTM0LjgzMTM2IDAtNjMuMDczMjggMjguMjQxOTItNjMuMDczMjggNjMuMDc4NHoiIHAtaWQ9IjEyNzUiIGRhdGEtc3BtLWFuY2hvci1pZD0iYTMxM3guNzc4MTA2OS4wLmkyIi8+PC9zdmc+" vertex="1" parent="1">
          <mxGeometry x="1015" y="950" width="40" height="40" as="geometry" />
        </mxCell>
        <mxCell id="GsL85oUIj4B969iY2pAi-18" value="" style="shape=singleArrow;direction=north;whiteSpace=wrap;html=1;rounded=0;sketch=0;" vertex="1" parent="1">
          <mxGeometry x="910" y="820" width="50" height="100" as="geometry" />
        </mxCell>
      </root>
    </mxGraphModel>
  </diagram>
</mxfile>
